<svg aria-hidden="true" style="position: absolute; width: 0; height: 0; overflow: hidden;" version="1.1" xmlns="http://www.w3.org/2000/svg" xmlns:xlink="http://www.w3.org/1999/xlink">
<defs>
<symbol id="icon-envelope" viewBox="0 0 48 48">
<path d="M48 20.99c0-1.4-0.58-2.67-1.51-3.58l-18.94-15.94c-1.96-1.96-5.14-1.96-7.1 0l-18.94 15.94c-0.93 0.91-1.51 2.18-1.51 3.58v23.010c0 2.21 1.79 4 4 4h40c2.21 0 4-1.79 4-4l-0-23.010zM10.2 17h27.6c1.22 0 2.2 0.98 2.2 2.2v3.8c-0.010 0.48-0.2 0.95-0.57 1.32l-6.16 6.21 9.16 9.149c0.76 0.76 0.76 1.99 0 2.75s-1.99 0.76-2.75 0l-9.43-9.429h-12.52l-9.41 9.43c-0.76 0.76-1.99 0.76-2.75 0s-0.76-1.99 0-2.75l9.15-9.149-6.15-6.21c-0.4-0.4-0.59-0.92-0.57-1.45l-0-3.671c0-1.22 0.98-2.2 2.2-2.2z"></path>
</symbol>
<symbol id="icon-phone" viewBox="0 0 48 48">
<path d="M24.078 44.919c4.099 4.11 10.74 4.11 14.839 0 2.551-2.55 3.52-6.080 2.891-9.38 1.080-0.55 2.049-1.19 2.859-1.79 0.090-0.070 0.49-0.35 0.59-0.43 0.451-0.37 0.74-0.93 0.74-1.561 0-0.6-0.26-1.14-0.68-1.5l-8.25-6.8c-0.34-0.28-0.779-0.45-1.26-0.45-0.541 0-1.031 0.21-1.391 0.55-0.141 0.14-1.379 1.41-1.379 1.41-0.861 0.86-2.25 0.86-3.111 0l-8.419-8.43c-0.86-0.86-0.86-2.26 0-3.12l1.37-1.37c0.36-0.36 0.57-0.86 0.57-1.399s-0.21-1.021-0.55-1.38l-7.070-8.54c-0.37-0.44-0.93-0.73-1.55-0.73-0.66 0-1.24 0.32-1.61 0.81l-0.12 0.16c-1.54 2.080-3.55 5.38-3.55 8.48 0 8.54 19.041 27.55 27.5 27.55 0.16 0 0.32-0.010 0.471-0.010 0.15 1.57-0.381 3.189-1.58 4.4-2.15 2.149-5.631 2.149-7.781 0l-13.809-14.19c-2.93-2.93-7.67-2.93-10.6 0s-2.93 7.67 0 10.6l4.53 4.47c0.98 0.971 2.56 0.971 3.54 0 0.97-0.979 0.97-2.56 0-3.539l-4.54-4.461c-0.97-0.979-0.97-2.56 0-3.539 0.98-0.971 2.56-0.971 3.54 0l13.81 14.189z"></path>
</symbol>
<symbol id="icon-bookmark" viewBox="0 0 48 48">
<path d="M4 4v40c0 2.21 1.79 4 4 4h33.5c1.38 0 2.5-1.12 2.5-2.5s-1.12-2.5-2.5-2.5h-30.5c-1.1 0-2-0.9-2-2s0.9-2 2-2h29c2.21 0 4-1.79 4-4v-31c0-2.21-1.79-4-4-4h-14v17.99c0 0.26-0.1 0.52-0.29 0.72-0.39 0.39-1.030 0.39-1.42 0-0.26-0.271-4.29-3.62-4.29-3.62s-4.030 3.35-4.29 3.62c-0.39 0.39-1.030 0.39-1.42 0-0.19-0.2-0.29-0.46-0.29-0.72v-17.99h-6c-2.21 0-4 1.79-4 4z"></path>
</symbol>
<symbol id="icon-car" viewBox="0 0 48 48">
<path d="M28 5h-3c-7.85 0-14.29 6.020-14.95 13.7-4.78 2.51-8.050 7.521-8.050 13.3l0.010 0.050c-1.151 0.23-2.010 1.24-2.010 2.45 0 1.38 1.12 2.5 2.5 2.5h3.52c0.25 3.91 3.51 7 7.48 7s7.23-3.090 7.48-7h7.039c0.25 3.91 3.51 7 7.48 7 4.14 0 7.5-3.36 7.5-7.5 0-0.27-0.020-0.55-0.050-0.811 3.021-1.729 5.051-4.968 5.051-8.689v-6.8c0-1.22-0.98-2.2-2.2-2.2h-2.93c-0.98-7.34-7.261-13-14.87-13zM24 10.050v9.95h-9c0-5.189 3.95-9.45 9-9.95zM29 20v-9.95c5.050 0.5 9 4.761 9 9.95h-9zM16 36.5c0 1.38-1.12 2.5-2.5 2.5s-2.5-1.12-2.5-2.5 1.12-2.5 2.5-2.5 2.5 1.12 2.5 2.5zM38 36.5c0 1.38-1.12 2.5-2.5 2.5s-2.5-1.12-2.5-2.5 1.12-2.5 2.5-2.5 2.5 1.12 2.5 2.5z"></path>
</symbol>
</defs>
</svg>
